<svg width="21" height="48" fill="none" xmlns="http://www.w3.org/2000/svg"><path fill-rule="evenodd" clip-rule="evenodd" d="M2.66 31.959a9.857 9.857 0 007.9 3.95 9.857 9.857 0 007.899-3.95 9.829 9.829 0 011.973 5.923c0 5.452-4.42 9.872-9.872 9.872-5.453 0-9.873-4.42-9.873-9.872 0-2.223.735-4.273 1.974-5.923zm.326-15.85a9.857 9.857 0 017.898-3.949c3.23 0 6.097 1.551 7.898 3.949a9.829 9.829 0 001.974-5.924c0-5.452-4.42-9.873-9.872-9.873s-9.872 4.42-9.872 9.873c0 2.223.734 4.274 1.974 5.924zm17.446 7.952c0-5.452-4.42-9.872-9.872-9.872-5.453 0-9.873 4.42-9.873 9.872 0 5.453 4.42 9.873 9.873 9.873 5.452 0 9.872-4.42 9.872-9.873z" fill="url(#paint0_linear_1_672)"/><path fill-rule="evenodd" clip-rule="evenodd" d="M2.66 31.959a9.857 9.857 0 007.9 3.95 9.857 9.857 0 007.899-3.95 9.829 9.829 0 011.973 5.923c0 5.452-4.42 9.872-9.872 9.872-5.453 0-9.873-4.42-9.873-9.872 0-2.223.735-4.273 1.974-5.923zm.326-15.85a9.857 9.857 0 017.898-3.949c3.23 0 6.097 1.551 7.898 3.949a9.829 9.829 0 001.974-5.924c0-5.452-4.42-9.873-9.872-9.873s-9.872 4.42-9.872 9.873c0 2.223.734 4.274 1.974 5.924zm17.446 7.952c0-5.452-4.42-9.872-9.872-9.872-5.453 0-9.873 4.42-9.873 9.872 0 5.453 4.42 9.873 9.873 9.873 5.452 0 9.872-4.42 9.872-9.873z" fill="#FFE8D7"/><defs><linearGradient id="paint0_linear_1_672" x1="11.08" y1="49.832" x2="10.561" y2=".369" gradientUnits="userSpaceOnUse"><stop stop-color="#FAE0B4"/><stop offset="1" stop-color="#E6C893"/></linearGradient></defs></svg>