<svg width="153" height="32" fill="none" xmlns="http://www.w3.org/2000/svg"><path d="M76.086.67l.01-.5-.01.5zm75.443 30.497a.5.5 0 00.554-.44l.515-4.47a.5.5 0 10-.993-.114l-.458 3.973-3.974-.458a.5.5 0 00-.115.993l4.471.516zM.586 30.67l.401.298h.001l.003-.005.014-.018a35.444 35.444 0 011.28-1.542l-.75-.66a36.394 36.394 0 00-1.263 1.514l-.064.084-.017.023-.005.006v.001l-.001.001.4.298zm4.574-4.286a70.48 70.48 0 013.062-2.82l-.656-.756a71.466 71.466 0 00-3.105 2.862l.7.714zm6.281-5.47c1.04-.81 2.16-1.642 3.361-2.485l-.574-.818a83.855 83.855 0 00-3.401 2.514l.614.79zm6.828-4.791a88.585 88.585 0 013.581-2.145l-.493-.87a89.472 89.472 0 00-3.622 2.169l.534.846zm7.255-4.118a92.79 92.79 0 013.774-1.811l-.412-.911a93.609 93.609 0 00-3.815 1.83l.452.892zm7.604-3.443a96.607 96.607 0 013.904-1.466l-.331-.943c-1.355.475-2.67.97-3.945 1.48l.372.93zM41 5.796c1.306-.397 2.646-.776 4.021-1.133l-.252-.968c-1.388.36-2.741.743-4.06 1.145l.29.956zm8.086-2.102c1.336-.29 2.703-.56 4.1-.807l-.175-.985c-1.409.25-2.788.521-4.138.815l.213.977zm8.225-1.455a113.63 113.63 0 014.147-.494l-.1-.995c-1.42.143-2.815.31-4.183.498l.136.99zm8.308-.837a121.65 121.65 0 014.17-.198l-.03-1c-1.425.044-2.827.11-4.205.2l.065.998zm8.345-.255c.699.002 1.402.01 2.111.023l.02-1C75.38.157 74.671.15 73.968.147l-.003 1zm2.111.023c.706.014 1.405.032 2.1.056l.033-1C77.51.203 76.805.184 76.095.17l-.019 1zm6.25.257c1.403.09 2.784.199 4.14.327l.095-.995c-1.368-.13-2.758-.24-4.172-.33l-.063.998zm8.27.784c1.396.177 2.767.374 4.112.59l.158-.987a127.423 127.423 0 00-4.145-.595l-.126.992zm8.203 1.317c1.385.27 2.74.56 4.066.868l.226-.974c-1.337-.31-2.704-.603-4.1-.875l-.192.981zm8.1 1.88c1.365.368 2.696.755 3.994 1.157l.296-.955a113.046 113.046 0 00-4.029-1.168l-.261.965zm7.941 2.463c1.335.47 2.632.956 3.89 1.455l.368-.93c-1.27-.503-2.578-.994-3.926-1.468l-.332.943zm7.711 3.058c1.303.577 2.558 1.166 3.767 1.762l.443-.896a103.61 103.61 0 00-3.804-1.78l-.406.914zm7.455 3.678a95.561 95.561 0 013.593 2.067l.517-.856a97.114 97.114 0 00-3.63-2.088l-.48.877zm7.099 4.296a87.24 87.24 0 013.399 2.389l.595-.804a88.437 88.437 0 00-3.439-2.417l-.555.832zm6.672 4.937a72.181 72.181 0 013.119 2.71l.678-.736a73.645 73.645 0 00-3.162-2.747l-.635.773zm6.077 5.627c.454.484.791.865 1.013 1.123.112.13.194.229.249.295l.06.073.014.018.004.004v.001l.392-.31.392-.311h-.001v-.001l-.001-.002-.005-.006-.017-.021-.067-.082a36.602 36.602 0 00-1.303-1.465l-.73.684zM76.086.67l.01-.5-.01.5zm75.443 30.497a.5.5 0 00.554-.44l.515-4.47a.5.5 0 10-.993-.114l-.458 3.973-3.974-.458a.5.5 0 00-.115.993l4.471.516zM.586 30.67l.401.298h.001l.003-.005.014-.018a35.444 35.444 0 011.28-1.542l-.75-.66a36.394 36.394 0 00-1.263 1.514l-.064.084-.017.023-.005.006v.001l-.001.001.4.298zm4.574-4.286a70.48 70.48 0 013.062-2.82l-.656-.756a71.466 71.466 0 00-3.105 2.862l.7.714zm6.281-5.47c1.04-.81 2.16-1.642 3.361-2.485l-.574-.818a83.855 83.855 0 00-3.401 2.514l.614.79zm6.828-4.791a88.585 88.585 0 013.581-2.145l-.493-.87a89.472 89.472 0 00-3.622 2.169l.534.846zm7.255-4.118a92.79 92.79 0 013.774-1.811l-.412-.911a93.609 93.609 0 00-3.815 1.83l.452.892zm7.604-3.443a96.607 96.607 0 013.904-1.466l-.331-.943c-1.355.475-2.67.97-3.945 1.48l.372.93zM41 5.796c1.306-.397 2.646-.776 4.021-1.133l-.252-.968c-1.388.36-2.741.743-4.06 1.145l.29.956zm8.086-2.102c1.336-.29 2.703-.56 4.1-.807l-.175-.985c-1.409.25-2.788.521-4.138.815l.213.977zm8.225-1.455a113.63 113.63 0 014.147-.494l-.1-.995c-1.42.143-2.815.31-4.183.498l.136.99zm8.308-.837a121.65 121.65 0 014.17-.198l-.03-1c-1.425.044-2.827.11-4.205.2l.065.998zm8.345-.255c.699.002 1.402.01 2.111.023l.02-1C75.38.157 74.671.15 73.968.147l-.003 1zm2.111.023c.706.014 1.405.032 2.1.056l.033-1C77.51.203 76.805.184 76.095.17l-.019 1zm6.25.257c1.403.09 2.784.199 4.14.327l.095-.995c-1.368-.13-2.758-.24-4.172-.33l-.063.998zm8.27.784c1.396.177 2.767.374 4.112.59l.158-.987a127.423 127.423 0 00-4.145-.595l-.126.992zm8.203 1.317c1.385.27 2.74.56 4.066.868l.226-.974c-1.337-.31-2.704-.603-4.1-.875l-.192.981zm8.1 1.88c1.365.368 2.696.755 3.994 1.157l.296-.955a113.046 113.046 0 00-4.029-1.168l-.261.965zm7.941 2.463c1.335.47 2.632.956 3.89 1.455l.368-.93c-1.27-.503-2.578-.994-3.926-1.468l-.332.943zm7.711 3.058c1.303.577 2.558 1.166 3.767 1.762l.443-.896a103.61 103.61 0 00-3.804-1.78l-.406.914zm7.455 3.678a95.561 95.561 0 013.593 2.067l.517-.856a97.114 97.114 0 00-3.63-2.088l-.48.877zm7.099 4.296a87.24 87.24 0 013.399 2.389l.595-.804a88.437 88.437 0 00-3.439-2.417l-.555.832zm6.672 4.937a72.181 72.181 0 013.119 2.71l.678-.736a73.645 73.645 0 00-3.162-2.747l-.635.773zm6.077 5.627c.454.484.791.865 1.013 1.123.112.13.194.229.249.295l.06.073.014.018.004.004v.001l.392-.31.392-.311h-.001v-.001l-.001-.002-.005-.006-.017-.021-.067-.082a36.602 36.602 0 00-1.303-1.465l-.73.684z" fill="#000"/></svg>