<svg width="349" height="100" fill="none" xmlns="http://www.w3.org/2000/svg"><mask id="a" style="mask-type:alpha" maskUnits="userSpaceOnUse" x="0" y="0" width="349" height="100"><path d="M6.566 8.58C8.37 3.216 13.526 0 19.187 0h309.79c5.661 0 10.816 3.215 12.622 8.58 2.883 8.57 6.565 23.055 6.565 41.158s-3.682 32.588-6.565 41.157c-1.806 5.365-6.961 8.58-12.622 8.58H19.187c-5.66 0-10.816-3.215-12.621-8.58C3.682 82.325 0 67.84 0 49.738 0 31.635 3.682 17.15 6.566 8.58z" fill="url(#paint0_linear_1_628)"/></mask><g mask="url(#a)"><g filter="url(#filter0_f_1_628)"><ellipse cx="-3.017" cy="5.748" rx="11.44" ry="49.23" transform="rotate(15.063 -3.017 5.748)" fill="#fff"/></g><g filter="url(#filter1_f_1_628)"><ellipse cx="350.164" cy="16.063" rx="11.44" ry="36.371" transform="rotate(-31.724 350.164 16.063)" fill="#fff"/></g></g><defs><filter id="filter0_f_1_628" x="-69.659" y="-91.623" width="133.283" height="194.741" filterUnits="userSpaceOnUse" color-interpolation-filters="sRGB"><feFlood flood-opacity="0" result="BackgroundImageFix"/><feBlend in="SourceGraphic" in2="BackgroundImageFix" result="shape"/><feGaussianBlur stdDeviation="24.869" result="effect1_foregroundBlur_1_628"/></filter><filter id="filter1_f_1_628" x="278.964" y="-65.197" width="142.401" height="162.52" filterUnits="userSpaceOnUse" color-interpolation-filters="sRGB"><feFlood flood-opacity="0" result="BackgroundImageFix"/><feBlend in="SourceGraphic" in2="BackgroundImageFix" result="shape"/><feGaussianBlur stdDeviation="24.869" result="effect1_foregroundBlur_1_628"/></filter><linearGradient id="paint0_linear_1_628" x1="9.948" y1="0" x2="338.217" y2="99.475" gradientUnits="userSpaceOnUse"><stop stop-color="#145F44"/><stop offset=".506" stop-color="#53B792"/><stop offset="1" stop-color="#145F44"/></linearGradient></defs></svg>