<svg width="21" height="21" fill="none" xmlns="http://www.w3.org/2000/svg"><g clip-path="url(#clip0_1_653)"><path d="M19.342 13.827c-1.28.002-2.551-.2-3.767-.6a1.616 1.616 0 00-1.639.348l-2.385 1.8a13.32 13.32 0 01-5.926-5.926L7.377 7.12c.442-.442.6-1.095.41-1.69-.401-1.218-.605-2.492-.603-3.773C7.184.742 6.442 0 5.526 0H1.658C.742 0 0 .742 0 1.658.012 12.335 8.665 20.988 19.342 21c.916 0 1.658-.742 1.658-1.658v-3.857c0-.916-.742-1.658-1.658-1.658z" fill="#000"/><path d="M19.342 13.827c-1.28.002-2.551-.2-3.767-.6a1.616 1.616 0 00-1.639.348l-2.385 1.8a13.32 13.32 0 01-5.926-5.926L7.377 7.12c.442-.442.6-1.095.41-1.69-.401-1.218-.605-2.492-.603-3.773C7.184.742 6.442 0 5.526 0H1.658C.742 0 0 .742 0 1.658.012 12.335 8.665 20.988 19.342 21c.916 0 1.658-.742 1.658-1.658v-3.857c0-.916-.742-1.658-1.658-1.658z" fill="url(#paint0_linear_1_653)"/><path d="M20.446 8.842a.553.553 0 01-.553-.553 7.193 7.193 0 00-7.184-7.184.553.553 0 010-1.105 8.298 8.298 0 018.29 8.29.553.553 0 01-.553.552z" fill="#000"/><path d="M20.446 8.842a.553.553 0 01-.553-.553 7.193 7.193 0 00-7.184-7.184.553.553 0 010-1.105 8.298 8.298 0 018.29 8.29.553.553 0 01-.553.552z" fill="url(#paint1_linear_1_653)"/><path d="M16.025 8.842a.553.553 0 01-.553-.552 2.763 2.763 0 00-2.763-2.764.553.553 0 010-1.105 3.868 3.868 0 013.868 3.869.553.553 0 01-.552.552z" fill="#000"/><path d="M16.025 8.842a.553.553 0 01-.553-.552 2.763 2.763 0 00-2.763-2.764.553.553 0 010-1.105 3.868 3.868 0 013.868 3.869.553.553 0 01-.552.552z" fill="url(#paint2_linear_1_653)"/></g><defs><linearGradient id="paint0_linear_1_653" x1="10.5" y1="0" x2="10.5" y2="21" gradientUnits="userSpaceOnUse"><stop stop-color="#E78087"/><stop offset="1" stop-color="#70292E"/></linearGradient><linearGradient id="paint1_linear_1_653" x1="16.577" y1="0" x2="16.577" y2="8.842" gradientUnits="userSpaceOnUse"><stop stop-color="#E78087"/><stop offset="1" stop-color="#70292E"/></linearGradient><linearGradient id="paint2_linear_1_653" x1="14.367" y1="4.421" x2="14.367" y2="8.842" gradientUnits="userSpaceOnUse"><stop stop-color="#E78087"/><stop offset="1" stop-color="#70292E"/></linearGradient><clipPath id="clip0_1_653"><path fill="#fff" d="M0 0h21v21H0z"/></clipPath></defs></svg>